<svg version="1.1" id="Layer_1" xmlns="http://www.w3.org/2000/svg" xmlns:xlink="http://www.w3.org/1999/xlink" x="0px" y="0px"
	 width="100%" viewBox="0 0 1000 1500" enable-background="new 0 0 1000 1500" xml:space="preserve">
<path fill="#E6E7EB" opacity="1.000000" stroke="none" 
	d="
M1.000020,1189.000000 
	C1.000000,793.047668 1.000000,397.095367 1.000000,1.071518 
	C334.245514,1.071518 667.491028,1.071518 1001.000000,1.071518 
	C1001.000000,397.364227 1001.000000,793.728516 1000.628174,1190.475586 
	C999.480835,1188.597900 998.933716,1186.225464 997.889954,1184.096680 
	C993.615112,1175.377075 989.445740,1166.587402 984.691467,1158.130493 
	C982.797119,1154.760864 979.486450,1152.187378 976.797485,1149.230957 
	C976.774536,1149.210449 976.750183,1149.153931 976.819702,1148.781494 
	C974.871155,1146.013794 972.853088,1143.618530 970.822876,1141.203613 
	C970.810852,1141.183838 970.775635,1141.153809 970.808960,1140.794678 
	C969.113647,1138.036621 967.599487,1135.442871 965.622620,1133.269775 
	C949.107910,1115.115112 929.953796,1100.085449 909.411072,1086.841064 
	C899.701111,1080.580811 889.544861,1074.982544 879.390320,1069.452271 
	C871.881409,1065.363037 864.136230,1061.673584 856.335022,1058.164673 
	C848.527161,1054.652832 840.539978,1051.534058 832.593323,1048.337769 
	C822.523193,1044.287476 812.495056,1040.111938 802.298096,1036.404785 
	C793.526062,1033.215576 784.592224,1030.438110 775.630371,1027.819336 
	C771.464294,1026.601929 767.062134,1026.192383 762.468079,1025.364868 
	C761.764160,1025.295654 761.359253,1025.278198 760.897827,1024.882324 
	C759.937683,1023.875305 759.118408,1022.944885 758.117188,1022.664856 
	C748.955444,1020.102539 739.804565,1017.474365 730.553650,1015.272705 
	C727.515503,1014.549561 724.193787,1015.017700 720.643799,1014.932007 
	C719.571350,1014.881409 718.856873,1014.839844 718.044373,1014.457886 
	C713.312256,1012.414612 708.793396,1010.197083 704.017395,1009.127808 
	C696.625305,1007.472656 688.989624,1006.919128 681.578979,1005.330200 
	C667.322754,1002.273682 653.116272,999.684631 638.383911,999.845642 
	C628.819580,999.950073 621.388672,1003.583801 614.799622,1009.776978 
	C607.121033,1016.994141 599.548706,1024.329102 592.084595,1031.767822 
	C588.859985,1034.981445 586.022583,1038.583618 582.669250,1042.059937 
	C579.882324,1044.736450 577.435364,1047.362427 574.647400,1050.042236 
	C566.115356,1057.351074 558.097717,1064.814209 549.691956,1071.810913 
	C537.646667,1081.837036 526.103088,1092.556885 510.950500,1098.207397 
	C502.350006,1101.414673 494.383270,1099.321411 486.927429,1096.001221 
	C480.818848,1093.281006 475.263672,1088.919189 470.110870,1084.525513 
	C453.844147,1070.655762 437.700317,1056.629150 421.864716,1042.270752 
	C411.021515,1032.439209 400.482361,1022.230469 390.354370,1011.665955 
	C383.175201,1004.177368 375.129395,1000.150818 364.654419,999.920959 
	C350.458191,999.609497 336.712433,1001.872925 322.941223,1004.908142 
	C311.658966,1007.394836 300.174072,1008.950867 288.842224,1011.233337 
	C286.699097,1011.665039 284.852783,1013.570190 282.563049,1014.828369 
	C281.845520,1014.868103 281.434387,1014.874817 280.724579,1014.635437 
	C278.631897,1014.438232 276.744232,1014.138672 275.058807,1014.591614 
	C262.643311,1017.928162 250.255371,1021.369690 237.883743,1024.866699 
	C224.533539,1028.640259 211.033936,1031.994873 197.926666,1036.486816 
	C185.500061,1040.745605 173.391678,1045.999023 161.338913,1051.262939 
	C150.454208,1056.016724 139.561081,1060.878418 129.159500,1066.582275 
	C112.506042,1075.714233 95.763039,1084.843628 79.993164,1095.374756 
	C67.650856,1103.616943 56.049843,1113.280884 45.358845,1123.597534 
	C34.368286,1134.203247 24.023563,1145.713989 16.400684,1159.175781 
	C12.445675,1166.160156 9.225010,1173.558105 5.595365,1180.730225 
	C4.172416,1183.541870 2.538115,1186.246582 1.000020,1189.000000 
M284.426758,702.314575 
	C284.790070,704.269165 284.941467,706.293152 285.554108,708.166199 
	C287.966431,715.541504 290.522278,722.869873 293.027588,730.214783 
	C296.012726,738.966309 298.376923,747.994629 302.122711,756.407654 
	C309.032501,771.927124 315.877106,787.593811 324.379547,802.253357 
	C333.166748,817.403870 342.979828,832.175964 354.049072,845.720215 
	C363.544342,857.338501 374.997253,867.512878 386.434265,877.336304 
	C394.815155,884.534729 404.082764,891.060852 413.843414,896.199341 
	C425.437500,902.302979 437.314087,908.258118 450.462402,910.808777 
	C461.653473,912.979797 472.698578,916.757263 483.963654,917.515625 
	C507.717712,919.114563 531.299561,917.327209 554.535278,910.989807 
	C577.094666,904.836914 597.790649,894.980591 616.040222,880.737915 
	C628.273804,871.190430 639.252197,859.919434 650.083984,848.734009 
	C656.614014,841.990601 662.248352,834.238647 667.447998,826.385620 
	C673.357605,817.460266 678.182434,807.824951 683.748962,798.662354 
	C693.242004,783.036804 699.714966,766.067383 705.906311,749.006165 
	C709.211304,739.898682 711.716675,730.485535 714.273682,721.125854 
	C717.914062,707.800354 721.684937,694.487427 724.622620,680.999878 
	C727.192505,669.201111 729.349548,657.231934 730.501709,645.224121 
	C732.150330,628.041565 733.364075,610.763611 733.588074,593.511108 
	C733.887878,570.424622 735.120483,547.235291 730.833130,524.308716 
	C728.738098,513.105286 727.170532,501.759796 724.291382,490.759369 
	C721.709473,480.894165 718.011902,471.269440 714.158325,461.802490 
	C709.997131,451.579865 705.821350,441.235535 700.304443,431.726074 
	C693.998108,420.856079 686.151489,410.885132 679.073547,400.456085 
	C666.316406,381.659058 648.775208,367.711853 630.545532,355.026794 
	C612.956909,342.787903 593.433838,333.585144 572.813782,327.211823 
	C554.740173,321.625549 536.328735,317.145233 517.394470,316.349213 
	C492.298584,315.294250 467.323669,316.079834 442.818451,323.143585 
	C426.273407,327.912781 409.702057,332.414185 394.624695,340.941772 
	C384.166473,346.856781 373.823090,353.008331 363.714081,359.499146 
	C349.791718,368.438477 337.518341,379.541687 327.009552,392.170410 
	C309.567291,413.131348 295.040100,436.025360 285.751617,461.915192 
	C283.688416,467.665894 281.148010,473.275604 279.506500,479.140320 
	C277.071899,487.838593 274.781982,496.628021 273.268860,505.521301 
	C271.189178,517.744690 268.860107,530.068115 268.461700,542.407532 
	C267.420197,574.665344 267.706482,606.949036 271.300568,639.093140 
	C272.127594,646.489746 273.258301,653.868164 274.631714,661.183167 
	C275.906006,667.970398 277.656555,674.670044 279.261261,681.392944 
	C280.865082,688.112366 282.548065,694.812805 284.426758,702.314575 
z"/>
<path fill="#667787" opacity="1.000000" stroke="none" 
	d="
M1001.000000,1217.000000 
	C1001.000000,1311.641113 1001.000000,1406.282349 1001.000000,1500.961670 
	C667.781982,1500.961670 334.563965,1500.961670 1.000000,1500.961670 
	C1.000000,1402.975342 1.000000,1304.950317 1.277722,1206.257080 
	C4.047445,1202.395386 5.832792,1198.996948 4.704807,1194.458252 
	C4.705382,1193.773560 4.700507,1193.382324 5.054520,1192.850830 
	C6.391449,1189.978516 7.252029,1187.197632 8.367066,1184.522705 
	C14.423071,1169.994629 22.414841,1156.442505 32.419811,1144.461670 
	C41.135223,1134.024902 51.608345,1125.058838 61.262150,1115.400391 
	C62.951649,1113.709961 64.430222,1111.808716 66.370544,1109.998169 
	C67.889984,1109.413818 69.122307,1108.952026 70.188301,1108.240967 
	C82.655396,1099.925049 94.896774,1091.249634 107.609955,1083.330688 
	C117.684258,1077.055542 128.029816,1071.047607 138.790939,1066.083008 
	C154.601410,1058.788940 170.880173,1052.507446 186.983627,1045.853027 
	C189.678635,1044.739502 192.502258,1043.939575 195.255508,1042.963989 
	C201.474731,1040.760010 207.702133,1038.576782 213.878220,1036.257324 
	C214.467712,1036.036011 214.719635,1034.915649 215.440033,1034.174561 
	C216.169418,1034.106079 216.587051,1034.075684 217.244125,1034.291748 
	C217.961441,1034.631714 218.490875,1034.909424 218.909698,1034.792114 
	C229.495193,1031.828369 240.061447,1028.795776 250.648209,1025.836548 
	C255.975281,1024.347534 261.336670,1022.981445 266.681030,1021.554199 
	C270.988892,1020.403748 275.292877,1019.238892 279.601410,1018.091064 
	C286.066101,1016.368835 292.533234,1014.655823 299.447205,1012.951660 
	C306.218658,1011.974792 312.571564,1011.134766 318.847626,1009.903076 
	C320.699005,1009.539734 322.333252,1008.069763 324.389435,1007.086914 
	C325.142517,1007.059814 325.573151,1007.052734 326.286255,1007.306274 
	C331.634399,1007.225830 336.698944,1006.867554 341.765961,1006.547668 
	C350.418488,1006.001465 359.074005,1005.080139 367.725342,1005.112061 
	C372.197144,1005.128540 376.662659,1006.854492 381.135132,1007.832642 
	C381.139221,1007.857178 381.188934,1007.860168 381.167053,1008.215759 
	C385.137482,1011.995789 389.129852,1015.420166 393.091431,1018.891968 
	C393.060608,1018.939392 393.154846,1018.876953 393.139954,1019.231995 
	C398.171509,1024.954102 403.030884,1030.515137 408.326294,1035.624268 
	C412.248444,1039.408447 416.737579,1042.604736 421.029175,1046.402954 
	C421.519135,1047.437256 421.823456,1048.276001 422.408295,1048.804443 
	C433.542908,1058.865967 444.600494,1069.017944 455.935364,1078.849854 
	C459.574493,1082.006470 463.963745,1084.298340 468.005127,1086.992920 
	C468.000458,1087.000000 468.013702,1086.986450 468.046448,1087.334229 
	C469.758850,1088.737305 471.438538,1089.792480 473.090149,1090.892822 
	C473.062042,1090.937866 473.151794,1090.880981 473.139618,1091.241089 
	C474.358459,1092.854980 475.378601,1094.507812 476.858734,1095.290283 
	C481.923889,1097.967773 486.926971,1101.294678 492.375977,1102.570801 
	C498.334808,1103.966187 505.041229,1104.626343 510.923737,1103.336060 
	C520.648438,1101.202759 528.621460,1094.859863 536.253418,1088.634399 
	C548.172668,1078.911865 559.911316,1068.955811 571.439087,1058.773315 
	C574.465393,1056.100220 576.433044,1052.228516 578.932739,1048.943726 
	C578.978577,1048.980225 578.907349,1048.886963 579.280518,1048.912231 
	C581.994812,1047.013672 584.472168,1045.232056 586.653503,1043.141602 
	C596.576050,1033.632202 606.329590,1023.945007 616.322876,1014.511353 
	C620.901978,1010.188660 625.852844,1005.659790 632.381104,1005.250305 
	C640.389587,1004.747986 648.479492,1005.332458 656.523926,1005.681763 
	C663.021790,1005.963928 669.504456,1006.594177 676.317993,1007.063843 
	C677.073547,1007.070312 677.505005,1007.082947 678.015625,1007.459839 
	C678.945801,1008.514404 679.704346,1009.619141 680.661560,1009.832642 
	C693.080322,1012.601807 705.535400,1015.207642 717.964661,1017.930542 
	C727.560120,1020.032532 737.207214,1021.958130 746.695740,1024.473755 
	C758.897034,1027.708740 771.025635,1031.255371 783.066772,1035.045166 
	C792.652344,1038.062134 802.034058,1041.720825 811.555481,1044.949707 
	C817.714539,1047.038330 823.962097,1048.865845 830.380554,1050.848022 
	C830.591064,1050.885620 831.005127,1050.992920 831.062073,1051.339355 
	C836.467773,1054.396484 841.785339,1057.170776 847.171692,1059.804443 
	C858.965576,1065.570923 870.767212,1071.323242 882.621826,1076.963257 
	C887.733704,1079.395386 892.984802,1081.534790 898.383240,1083.843750 
	C898.593811,1083.880493 899.007019,1083.990234 899.047119,1084.342163 
	C899.773499,1085.595581 900.290833,1086.733643 901.171753,1087.362671 
	C912.514404,1095.462036 923.888611,1103.517456 935.303406,1111.514893 
	C938.490784,1113.748047 941.836548,1115.755127 945.069214,1117.914795 
	C945.028748,1117.963745 945.132690,1117.890747 945.137878,1118.229004 
	C945.819336,1118.984985 946.495667,1119.402466 947.371887,1119.867676 
	C947.571838,1119.915283 947.958435,1120.054932 947.965820,1120.416260 
	C950.662842,1123.804688 953.257202,1126.923096 956.058777,1129.842651 
	C967.316223,1141.573608 977.811157,1153.945923 985.428833,1168.365601 
	C989.297058,1175.687988 992.218994,1183.561157 995.014587,1191.383423 
	C997.418335,1198.109619 999.035217,1205.116943 1001.000000,1212.000000 
	C1001.000000,1213.066650 1001.000000,1214.133301 1000.864685,1215.706787 
	C1000.819580,1216.475708 1000.909790,1216.737793 1001.000000,1217.000000 
z"/>
<path fill="#B9C0C9" opacity="1.000000" stroke="none" 
	d="
M4.695644,1192.991089 
	C4.700507,1193.382324 4.705382,1193.773560 4.409900,1194.590576 
	C3.073027,1196.010864 2.036512,1197.005371 0.999999,1198.000000 
	C1.000000,1195.299927 1.000000,1192.599976 1.000020,1189.449951 
	C2.538115,1186.246582 4.172416,1183.541870 5.595365,1180.730225 
	C9.225010,1173.558105 12.445675,1166.160156 16.400684,1159.175781 
	C24.023563,1145.713989 34.368286,1134.203247 45.358845,1123.597534 
	C56.049843,1113.280884 67.650856,1103.616943 79.993164,1095.374756 
	C95.763039,1084.843628 112.506042,1075.714233 129.159500,1066.582275 
	C139.561081,1060.878418 150.454208,1056.016724 161.338913,1051.262939 
	C173.391678,1045.999023 185.500061,1040.745605 197.926666,1036.486816 
	C211.033936,1031.994873 224.533539,1028.640259 237.883743,1024.866699 
	C250.255371,1021.369690 262.643311,1017.928162 275.058807,1014.591614 
	C276.744232,1014.138672 278.631897,1014.438232 280.487549,1014.930786 
	C267.135803,1018.996094 253.664795,1022.317871 240.330841,1026.120239 
	C232.443512,1028.369385 224.772812,1031.378174 217.004700,1034.045410 
	C216.587051,1034.075684 216.169418,1034.106079 215.048126,1034.145264 
	C193.663849,1042.051270 172.834290,1049.585327 152.361069,1057.987793 
	C140.936295,1062.676636 130.028366,1068.662598 119.029823,1074.339722 
	C111.106659,1078.429443 103.090729,1082.485107 95.703720,1087.433228 
	C85.130508,1094.515381 75.093536,1102.398193 64.541153,1110.099365 
	C58.288994,1115.250610 51.823616,1119.759644 46.454468,1125.326172 
	C32.270779,1140.030884 19.231277,1155.742310 10.496111,1174.413208 
	C7.771965,1180.235962 6.585845,1186.778198 4.695644,1192.991089 
z"/>
<path fill="#8B96A2" opacity="1.000000" stroke="none" 
	d="
M1001.000000,1211.550049 
	C999.035217,1205.116943 997.418335,1198.109619 995.014587,1191.383423 
	C992.218994,1183.561157 989.297058,1175.687988 985.428833,1168.365601 
	C977.811157,1153.945923 967.316223,1141.573608 956.058777,1129.842651 
	C953.257202,1126.923096 950.662842,1123.804688 948.313049,1120.433960 
	C953.754211,1125.020874 958.839905,1129.967896 963.963989,1134.874878 
	C966.193848,1137.010254 968.502625,1139.063354 970.775635,1141.153809 
	C970.775635,1141.153809 970.810852,1141.183838 970.853394,1141.546387 
	C972.847351,1144.323975 974.798767,1146.739014 976.750183,1149.153931 
	C976.750183,1149.153931 976.774536,1149.210449 976.831299,1149.574829 
	C977.105591,1150.558350 977.197083,1151.265747 977.559204,1151.783936 
	C987.280273,1165.692993 995.438293,1180.331787 999.095581,1197.130493 
	C999.253845,1197.857422 1000.343933,1198.381470 1001.000000,1199.000000 
	C1001.000000,1199.444458 1001.000000,1199.888916 1000.803040,1200.823975 
	C1000.737366,1201.876343 1000.868713,1202.438110 1001.000000,1203.000000 
	C1001.000000,1205.700073 1001.000000,1208.400024 1001.000000,1211.550049 
z"/>
<path fill="#B9C0C9" opacity="1.000000" stroke="none" 
	d="
M1001.000000,1198.555908 
	C1000.343933,1198.381470 999.253845,1197.857422 999.095581,1197.130493 
	C995.438293,1180.331787 987.280273,1165.692993 977.559204,1151.783936 
	C977.197083,1151.265747 977.105591,1150.558350 976.854248,1149.595337 
	C979.486450,1152.187378 982.797119,1154.760864 984.691467,1158.130493 
	C989.445740,1166.587402 993.615112,1175.377075 997.889954,1184.096680 
	C998.933716,1186.225464 999.480835,1188.597900 1000.628174,1190.929199 
	C1001.000000,1193.370605 1001.000000,1195.741089 1001.000000,1198.555908 
z"/>
<path fill="#8996A2" opacity="1.000000" stroke="none" 
	d="
M0.999999,1198.333252 
	C2.036512,1197.005371 3.073027,1196.010864 4.404449,1194.884033 
	C5.832792,1198.996948 4.047445,1202.395386 1.277722,1205.794434 
	C1.000000,1204.611084 1.000000,1203.222168 1.110647,1201.291382 
	C1.438238,1200.487427 1.364473,1200.237671 1.000000,1200.000000 
	C1.000000,1199.555542 1.000000,1199.111084 0.999999,1198.333252 
z"/>
<path fill="#B9C0C9" opacity="1.000000" stroke="none" 
	d="
M1001.000000,1202.666748 
	C1000.868713,1202.438110 1000.737366,1201.876343 1000.803040,1201.157227 
	C1001.000000,1201.444458 1001.000000,1201.888916 1001.000000,1202.666748 
z"/>
<path fill="#B9C0C9" opacity="1.000000" stroke="none" 
	d="
M1.000000,1200.250000 
	C1.364473,1200.237671 1.438238,1200.487427 1.110647,1200.874756 
	C1.000000,1201.000000 1.000000,1200.500000 1.000000,1200.250000 
z"/>
<path fill="#8B96A2" opacity="1.000000" stroke="none" 
	d="
M1001.000000,1216.750000 
	C1000.909790,1216.737793 1000.819580,1216.475708 1000.864685,1216.106689 
	C1001.000000,1216.000000 1001.000000,1216.500000 1001.000000,1216.750000 
z"/>
<path fill="#97A1AC" opacity="1.000000" stroke="none" 
	d="
M284.311523,701.918091 
	C282.548065,694.812805 280.865082,688.112366 279.261261,681.392944 
	C277.656555,674.670044 275.906006,667.970398 274.631714,661.183167 
	C273.258301,653.868164 272.127594,646.489746 271.300568,639.093140 
	C267.706482,606.949036 267.420197,574.665344 268.461700,542.407532 
	C268.860107,530.068115 271.189178,517.744690 273.268860,505.521301 
	C274.781982,496.628021 277.071899,487.838593 279.506500,479.140320 
	C281.148010,473.275604 283.688416,467.665894 285.751617,461.915192 
	C295.040100,436.025360 309.567291,413.131348 327.009552,392.170410 
	C337.518341,379.541687 349.791718,368.438477 363.714081,359.499146 
	C373.823090,353.008331 384.166473,346.856781 394.624695,340.941772 
	C409.702057,332.414185 426.273407,327.912781 442.818451,323.143585 
	C467.323669,316.079834 492.298584,315.294250 517.394470,316.349213 
	C536.328735,317.145233 554.740173,321.625549 572.813782,327.211823 
	C593.433838,333.585144 612.956909,342.787903 630.545532,355.026794 
	C648.775208,367.711853 666.316406,381.659058 679.073547,400.456085 
	C686.151489,410.885132 693.998108,420.856079 700.304443,431.726074 
	C705.821350,441.235535 709.997131,451.579865 714.158325,461.802490 
	C718.011902,471.269440 721.709473,480.894165 724.291382,490.759369 
	C727.170532,501.759796 728.738098,513.105286 730.833130,524.308716 
	C735.120483,547.235291 733.887878,570.424622 733.588074,593.511108 
	C733.364075,610.763611 732.150330,628.041565 730.501709,645.224121 
	C729.349548,657.231934 727.192505,669.201111 724.622620,680.999878 
	C721.684937,694.487427 717.914062,707.800354 714.273682,721.125854 
	C711.716675,730.485535 709.211304,739.898682 705.906311,749.006165 
	C699.714966,766.067383 693.242004,783.036804 683.748962,798.662354 
	C678.182434,807.824951 673.357605,817.460266 667.447998,826.385620 
	C662.248352,834.238647 656.614014,841.990601 650.083984,848.734009 
	C639.252197,859.919434 628.273804,871.190430 616.040222,880.737915 
	C597.790649,894.980591 577.094666,904.836914 554.535278,910.989807 
	C531.299561,917.327209 507.717712,919.114563 483.963654,917.515625 
	C472.698578,916.757263 461.653473,912.979797 450.462402,910.808777 
	C437.314087,908.258118 425.437500,902.302979 413.843414,896.199341 
	C404.082764,891.060852 394.815155,884.534729 386.434265,877.336304 
	C374.997253,867.512878 363.544342,857.338501 354.049072,845.720215 
	C342.979828,832.175964 333.166748,817.403870 324.379547,802.253357 
	C315.877106,787.593811 309.032501,771.927124 302.122711,756.407654 
	C298.376923,747.994629 296.012726,738.966309 293.027588,730.214783 
	C290.522278,722.869873 287.966431,715.541504 285.554108,708.166199 
	C284.941467,706.293152 284.790070,704.269165 284.311523,701.918091 
M351.874817,373.361176 
	C351.052307,373.924500 350.096344,374.361847 349.427582,375.070343 
	C341.181671,383.805725 332.273376,392.035126 324.949341,401.489899 
	C316.657745,412.193634 309.242767,423.687378 302.493042,435.438660 
	C297.299377,444.480774 293.601837,454.400177 289.472229,464.029480 
	C286.507874,470.941620 283.448456,477.875763 281.306763,485.061035 
	C278.967712,492.908325 277.016144,500.978607 276.003174,509.090027 
	C274.198242,523.542908 272.554169,538.076721 272.052704,552.618408 
	C271.135803,579.205627 271.793091,605.802551 274.979889,632.261963 
	C276.021301,640.908875 277.338654,649.532959 278.860992,658.108643 
	C280.323792,666.349182 282.190643,674.518799 283.932343,682.708435 
	C284.508881,685.419312 285.248077,688.095459 285.913239,690.787415 
	C288.367798,700.721313 290.171295,710.875183 293.434601,720.535889 
	C297.963135,733.942200 303.337524,747.083252 308.818451,760.141174 
	C313.598938,771.530396 318.607483,782.864746 324.273285,793.831726 
	C332.154724,809.087280 340.927338,823.841370 352.470581,836.754883 
	C359.849030,845.009155 366.464264,854.025940 374.417023,861.664673 
	C382.685730,869.607056 391.609009,877.150818 401.239471,883.317566 
	C412.057434,890.244568 423.748413,895.973145 435.514954,901.197388 
	C443.705475,904.833984 452.553528,907.202942 461.309570,909.292847 
	C470.226135,911.420959 479.358795,913.533936 488.452637,913.809021 
	C500.493530,914.173218 512.591492,912.182251 524.659607,912.243591 
	C537.189453,912.307251 548.714233,908.403625 560.311218,904.811951 
	C568.754395,902.197021 576.938843,898.625183 585.013733,894.981567 
	C591.280273,892.153992 597.489990,888.992249 603.197388,885.187622 
	C609.942810,880.690857 616.633545,875.872131 622.435181,870.250977 
	C633.478699,859.550842 644.461792,848.676270 654.346680,836.928833 
	C661.843323,828.019592 667.952026,817.859558 674.025574,807.859558 
	C679.817444,798.323303 685.390259,788.552307 689.917725,778.376465 
	C695.071045,766.793945 699.445496,754.802673 703.280457,742.710571 
	C708.632507,725.835266 713.676331,708.826111 717.898987,691.640015 
	C721.329590,677.677490 724.135132,663.461792 725.812744,649.193176 
	C727.959778,630.932556 729.393433,612.523865 729.859070,594.146667 
	C730.399780,572.805359 730.070557,551.489258 727.478333,530.124207 
	C725.583923,514.510437 722.787476,499.322052 717.958008,484.464294 
	C714.643677,474.268188 711.205078,464.082092 707.145020,454.168762 
	C704.086304,446.700287 700.184814,439.542236 696.233337,432.484039 
	C692.366638,425.577087 688.288879,418.737823 683.694458,412.304077 
	C679.706482,406.719635 674.442810,402.042816 670.487549,396.439270 
	C661.227173,383.319611 648.748230,373.657410 636.212158,364.180176 
	C622.105896,353.515930 606.830139,344.599121 590.394897,337.906036 
	C581.714661,334.371094 573.074341,330.231812 564.004028,328.271912 
	C547.710754,324.751465 531.177551,321.168823 514.613770,320.387756 
	C496.475525,319.532471 478.103210,321.038544 459.999573,323.030365 
	C449.218964,324.216522 438.744659,328.264984 428.165527,331.147278 
	C425.631500,331.837677 423.183594,332.907623 420.772797,333.976044 
	C409.662415,338.899841 398.441193,343.601715 387.522156,348.921783 
	C374.688873,355.174438 363.272278,363.651367 351.874817,373.361176 
z"/>
<path fill="#B9C0C9" opacity="1.000000" stroke="none" 
	d="
M326.003784,1007.045654 
	C325.573151,1007.052734 325.142517,1007.059814 323.972351,1007.036255 
	C318.096863,1007.942017 312.952148,1008.833374 307.828278,1009.831970 
	C304.853241,1010.411743 301.911774,1011.163818 298.532715,1011.865051 
	C293.029999,1012.859619 287.949768,1013.827515 282.869507,1014.795410 
	C284.852783,1013.570190 286.699097,1011.665039 288.842224,1011.233337 
	C300.174072,1008.950867 311.658966,1007.394836 322.941223,1004.908142 
	C336.712433,1001.872925 350.458191,999.609497 364.654419,999.920959 
	C375.129395,1000.150818 383.175201,1004.177368 390.354370,1011.665955 
	C400.482361,1022.230469 411.021515,1032.439209 421.864716,1042.270752 
	C437.700317,1056.629150 453.844147,1070.655762 470.110870,1084.525513 
	C475.263672,1088.919189 480.818848,1093.281006 486.927429,1096.001221 
	C494.383270,1099.321411 502.350006,1101.414673 510.950500,1098.207397 
	C526.103088,1092.556885 537.646667,1081.837036 549.691956,1071.810913 
	C558.097717,1064.814209 566.115356,1057.351074 574.733154,1050.128052 
	C575.159912,1050.159912 575.331360,1050.331421 575.197021,1050.632568 
	C573.984619,1052.185791 573.011536,1053.550049 571.812317,1054.672729 
	C557.422119,1068.144531 542.916016,1081.478638 526.712585,1092.812378 
	C512.291016,1102.899902 497.510071,1105.928345 481.819122,1095.555542 
	C479.091858,1093.752686 476.048920,1092.427002 473.151794,1090.880981 
	C473.151794,1090.880981 473.062042,1090.937866 473.027222,1090.555664 
	C471.332855,1089.111206 469.673279,1088.048828 468.013672,1086.986450 
	C468.013702,1086.986450 468.000458,1087.000000 467.871399,1086.685791 
	C452.168427,1072.556519 436.594482,1058.741455 420.859558,1044.640625 
	C415.100189,1038.721558 409.625610,1032.957275 403.855927,1027.505127 
	C400.535706,1024.367798 396.737762,1021.736206 393.154846,1018.876953 
	C393.154846,1018.876953 393.060608,1018.939392 393.031555,1018.562744 
	C389.064636,1014.744141 385.126770,1011.302185 381.188934,1007.860168 
	C381.188934,1007.860168 381.139221,1007.857178 381.035461,1007.504639 
	C378.919556,1006.099609 376.983765,1004.852600 374.882263,1004.027771 
	C365.138458,1000.203613 355.194641,1002.406555 345.370880,1003.492859 
	C338.863800,1004.212402 332.456024,1005.830017 326.003784,1007.045654 
z"/>
<path fill="#B9C0C9" opacity="1.000000" stroke="none" 
	d="
M970.808960,1140.794678 
	C968.502625,1139.063354 966.193848,1137.010254 963.963989,1134.874878 
	C958.839905,1129.967896 953.754211,1125.020874 948.305664,1120.072510 
	C947.958435,1120.054932 947.571838,1119.915283 947.292603,1119.572021 
	C946.386475,1118.782837 945.759583,1118.336792 945.132690,1117.890747 
	C945.132690,1117.890747 945.028748,1117.963745 945.008667,1117.582764 
	C944.529846,1116.526489 944.211304,1115.661499 943.591858,1115.203857 
	C930.773315,1105.733276 917.949036,1096.269653 905.041504,1086.921021 
	C903.258057,1085.629272 901.029480,1084.952026 899.007019,1083.990234 
	C899.007019,1083.990234 898.593811,1083.880493 898.273010,1083.527710 
	C897.338379,1082.639771 896.800659,1081.959839 896.099304,1081.591187 
	C882.147583,1074.257324 868.323425,1066.657837 854.150085,1059.778198 
	C846.755859,1056.188965 838.740173,1053.880005 831.005127,1050.992920 
	C831.005127,1050.992920 830.591064,1050.885620 830.267090,1050.521851 
	C828.699280,1049.410400 827.540955,1048.413818 826.198669,1047.952759 
	C806.932617,1041.335693 787.633850,1034.813843 768.369202,1028.192627 
	C766.414673,1027.520752 764.630310,1026.353882 762.767029,1025.416626 
	C767.062134,1026.192383 771.464294,1026.601929 775.630371,1027.819336 
	C784.592224,1030.438110 793.526062,1033.215576 802.298096,1036.404785 
	C812.495056,1040.111938 822.523193,1044.287476 832.593323,1048.337769 
	C840.539978,1051.534058 848.527161,1054.652832 856.335022,1058.164673 
	C864.136230,1061.673584 871.881409,1065.363037 879.390320,1069.452271 
	C889.544861,1074.982544 899.701111,1080.580811 909.411072,1086.841064 
	C929.953796,1100.085449 949.107910,1115.115112 965.622620,1133.269775 
	C967.599487,1135.442871 969.113647,1138.036621 970.808960,1140.794678 
z"/>
<path fill="#8B96A2" opacity="1.000000" stroke="none" 
	d="
M762.468079,1025.364868 
	C764.630310,1026.353882 766.414673,1027.520752 768.369202,1028.192627 
	C787.633850,1034.813843 806.932617,1041.335693 826.198669,1047.952759 
	C827.540955,1048.413818 828.699280,1049.410400 830.056641,1050.484253 
	C823.962097,1048.865845 817.714539,1047.038330 811.555481,1044.949707 
	C802.034058,1041.720825 792.652344,1038.062134 783.066772,1035.045166 
	C771.025635,1031.255371 758.897034,1027.708740 746.695740,1024.473755 
	C737.207214,1021.958130 727.560120,1020.032532 717.964661,1017.930542 
	C705.535400,1015.207642 693.080322,1012.601807 680.661560,1009.832642 
	C679.704346,1009.619141 678.945801,1008.514404 678.432251,1007.412354 
	C688.365173,1008.783569 697.968628,1010.525452 707.552185,1012.370605 
	C711.106262,1013.054871 714.613708,1013.981873 718.142395,1014.798218 
	C718.856873,1014.839844 719.571350,1014.881409 720.879211,1015.222534 
	C730.674561,1017.994507 739.856445,1020.545288 749.087891,1022.902283 
	C752.989746,1023.898499 756.995667,1024.487061 760.954285,1025.260742 
	C761.359253,1025.278198 761.764160,1025.295654 762.468079,1025.364868 
z"/>
<path fill="#B9C0C9" opacity="1.000000" stroke="none" 
	d="
M718.044373,1014.457886 
	C714.613708,1013.981873 711.106262,1013.054871 707.552185,1012.370605 
	C697.968628,1010.525452 688.365173,1008.783569 678.353027,1007.048218 
	C677.505005,1007.082947 677.073547,1007.070312 676.068970,1006.780762 
	C673.587524,1005.989624 671.708191,1005.257874 669.765869,1004.999023 
	C661.729370,1003.928162 653.691467,1002.805542 645.620605,1002.069397 
	C635.729004,1001.167053 626.214111,1002.550842 618.647156,1009.645569 
	C608.466553,1019.191040 598.634155,1029.107056 588.567505,1038.775757 
	C587.065430,1040.218384 585.100525,1041.179077 583.264648,1042.274414 
	C583.179504,1042.186035 583.009338,1042.009277 583.009277,1042.009277 
	C586.022583,1038.583618 588.859985,1034.981445 592.084595,1031.767822 
	C599.548706,1024.329102 607.121033,1016.994141 614.799622,1009.776978 
	C621.388672,1003.583801 628.819580,999.950073 638.383911,999.845642 
	C653.116272,999.684631 667.322754,1002.273682 681.578979,1005.330200 
	C688.989624,1006.919128 696.625305,1007.472656 704.017395,1009.127808 
	C708.793396,1010.197083 713.312256,1012.414612 718.044373,1014.457886 
z"/>
<path fill="#8B96A2" opacity="1.000000" stroke="none" 
	d="
M282.563080,1014.828491 
	C287.949768,1013.827515 293.029999,1012.859619 298.546875,1012.140747 
	C298.988800,1012.572876 298.994080,1012.755920 298.999329,1012.938965 
	C292.533234,1014.655823 286.066101,1016.368835 279.601410,1018.091064 
	C275.292877,1019.238892 270.988892,1020.403748 266.681030,1021.554199 
	C261.336670,1022.981445 255.975281,1024.347534 250.648209,1025.836548 
	C240.061447,1028.795776 229.495193,1031.828369 218.909698,1034.792114 
	C218.490875,1034.909424 217.961441,1034.631714 217.244125,1034.291748 
	C224.772812,1031.378174 232.443512,1028.369385 240.330841,1026.120239 
	C253.664795,1022.317871 267.135803,1018.996094 280.786224,1015.176880 
	C281.434387,1014.874817 281.845520,1014.868103 282.563080,1014.828491 
z"/>
<path fill="#B9C0C9" opacity="1.000000" stroke="none" 
	d="
M760.897827,1024.882446 
	C756.995667,1024.487061 752.989746,1023.898499 749.087891,1022.902283 
	C739.856445,1020.545288 730.674561,1017.994507 721.237183,1015.231567 
	C724.193787,1015.017700 727.515503,1014.549561 730.553650,1015.272705 
	C739.804565,1017.474365 748.955444,1020.102539 758.117188,1022.664856 
	C759.118408,1022.944885 759.937683,1023.875305 760.897827,1024.882446 
z"/>
<path fill="#B9C0C9" opacity="1.000000" stroke="none" 
	d="
M575.074219,1050.074097 
	C577.435364,1047.362427 579.882324,1044.736450 582.669312,1042.059937 
	C583.009338,1042.009277 583.179504,1042.186035 583.123047,1042.567627 
	C581.680237,1044.928345 580.293823,1046.907715 578.907349,1048.886963 
	C578.907349,1048.886963 578.978577,1048.980225 578.615967,1048.998047 
	C577.279419,1049.454346 576.305359,1049.892944 575.331360,1050.331421 
	C575.331360,1050.331421 575.159912,1050.159912 575.074219,1050.074097 
z"/>
<path fill="#B9C0C9" opacity="1.000000" stroke="none" 
	d="
M976.819702,1148.781494 
	C974.798767,1146.739014 972.847351,1144.323975 970.865479,1141.566162 
	C972.853088,1143.618530 974.871155,1146.013794 976.819702,1148.781494 
z"/>
<path fill="#8B96A2" opacity="1.000000" stroke="none" 
	d="
M64.827606,1109.939209 
	C75.093536,1102.398193 85.130508,1094.515381 95.703720,1087.433228 
	C103.090729,1082.485107 111.106659,1078.429443 119.029823,1074.339722 
	C130.028366,1068.662598 140.936295,1062.676636 152.361069,1057.987793 
	C172.834290,1049.585327 193.663849,1042.051270 214.736374,1034.183472 
	C214.719635,1034.915649 214.467712,1036.036011 213.878220,1036.257324 
	C207.702133,1038.576782 201.474731,1040.760010 195.255508,1042.963989 
	C192.502258,1043.939575 189.678635,1044.739502 186.983627,1045.853027 
	C170.880173,1052.507446 154.601410,1058.788940 138.790939,1066.083008 
	C128.029816,1071.047607 117.684258,1077.055542 107.609955,1083.330688 
	C94.896774,1091.249634 82.655396,1099.925049 70.188301,1108.240967 
	C69.122307,1108.952026 67.889984,1109.413818 66.075653,1109.985596 
	C65.220139,1109.966187 65.023880,1109.952759 64.827606,1109.939209 
z"/>
<path fill="#8B96A2" opacity="1.000000" stroke="none" 
	d="
M575.197021,1050.632568 
	C576.305359,1049.892944 577.279419,1049.454346 578.570129,1048.961548 
	C576.433044,1052.228516 574.465393,1056.100220 571.439087,1058.773315 
	C559.911316,1068.955811 548.172668,1078.911865 536.253418,1088.634399 
	C528.621460,1094.859863 520.648438,1101.202759 510.923737,1103.336060 
	C505.041229,1104.626343 498.334808,1103.966187 492.375977,1102.570801 
	C486.926971,1101.294678 481.923889,1097.967773 476.858734,1095.290283 
	C475.378601,1094.507812 474.358459,1092.854980 473.139618,1091.241089 
	C476.048920,1092.427002 479.091858,1093.752686 481.819122,1095.555542 
	C497.510071,1105.928345 512.291016,1102.899902 526.712585,1092.812378 
	C542.916016,1081.478638 557.422119,1068.144531 571.812317,1054.672729 
	C573.011536,1053.550049 573.984619,1052.185791 575.197021,1050.632568 
z"/>
<path fill="#8B96A2" opacity="1.000000" stroke="none" 
	d="
M579.280518,1048.912231 
	C580.293823,1046.907715 581.680237,1044.928345 583.208191,1042.656006 
	C585.100525,1041.179077 587.065430,1040.218384 588.567505,1038.775757 
	C598.634155,1029.107056 608.466553,1019.191040 618.647156,1009.645569 
	C626.214111,1002.550842 635.729004,1001.167053 645.620605,1002.069397 
	C653.691467,1002.805542 661.729370,1003.928162 669.765869,1004.999023 
	C671.708191,1005.257874 673.587524,1005.989624 675.744873,1006.786987 
	C669.504456,1006.594177 663.021790,1005.963928 656.523926,1005.681763 
	C648.479492,1005.332458 640.389587,1004.747986 632.381104,1005.250305 
	C625.852844,1005.659790 620.901978,1010.188660 616.322876,1014.511353 
	C606.329590,1023.945007 596.576050,1033.632202 586.653503,1043.141602 
	C584.472168,1045.232056 581.994812,1047.013672 579.280518,1048.912231 
z"/>
<path fill="#8996A2" opacity="1.000000" stroke="none" 
	d="
M64.541168,1110.099365 
	C65.023880,1109.952759 65.220139,1109.966187 65.711296,1109.992310 
	C64.430222,1111.808716 62.951649,1113.709961 61.262150,1115.400391 
	C51.608345,1125.058838 41.135223,1134.024902 32.419811,1144.461670 
	C22.414841,1156.442505 14.423071,1169.994629 8.367066,1184.522705 
	C7.252029,1187.197632 6.391449,1189.978516 5.054533,1192.850830 
	C6.585845,1186.778198 7.771965,1180.235962 10.496111,1174.413208 
	C19.231277,1155.742310 32.270779,1140.030884 46.454468,1125.326172 
	C51.823616,1119.759644 58.288994,1115.250610 64.541168,1110.099365 
z"/>
<path fill="#8B96A2" opacity="1.000000" stroke="none" 
	d="
M831.062073,1051.339355 
	C838.740173,1053.880005 846.755859,1056.188965 854.150085,1059.778198 
	C868.323425,1066.657837 882.147583,1074.257324 896.099304,1081.591187 
	C896.800659,1081.959839 897.338379,1082.639771 898.062439,1083.490967 
	C892.984802,1081.534790 887.733704,1079.395386 882.621826,1076.963257 
	C870.767212,1071.323242 858.965576,1065.570923 847.171692,1059.804443 
	C841.785339,1057.170776 836.467773,1054.396484 831.062073,1051.339355 
z"/>
<path fill="#8B96A2" opacity="1.000000" stroke="none" 
	d="
M421.020538,1044.926270 
	C436.594482,1058.741455 452.168427,1072.556519 467.876099,1086.678833 
	C463.963745,1084.298340 459.574493,1082.006470 455.935364,1078.849854 
	C444.600494,1069.017944 433.542908,1058.865967 422.408295,1048.804443 
	C421.823456,1048.276001 421.519135,1047.437256 421.041656,1046.118408 
	C421.006256,1045.304688 421.013397,1045.115479 421.020538,1044.926270 
z"/>
<path fill="#8B96A2" opacity="1.000000" stroke="none" 
	d="
M899.047119,1084.342163 
	C901.029480,1084.952026 903.258057,1085.629272 905.041504,1086.921021 
	C917.949036,1096.269653 930.773315,1105.733276 943.591858,1115.203857 
	C944.211304,1115.661499 944.529846,1116.526489 945.049072,1117.533813 
	C941.836548,1115.755127 938.490784,1113.748047 935.303406,1111.514893 
	C923.888611,1103.517456 912.514404,1095.462036 901.171753,1087.362671 
	C900.290833,1086.733643 899.773499,1085.595581 899.047119,1084.342163 
z"/>
<path fill="#8B96A2" opacity="1.000000" stroke="none" 
	d="
M326.286255,1007.306213 
	C332.456024,1005.830017 338.863800,1004.212402 345.370880,1003.492859 
	C355.194641,1002.406555 365.138458,1000.203613 374.882263,1004.027771 
	C376.983765,1004.852600 378.919556,1006.099609 381.031372,1007.480103 
	C376.662659,1006.854492 372.197144,1005.128540 367.725342,1005.112061 
	C359.074005,1005.080139 350.418488,1006.001465 341.765961,1006.547668 
	C336.698944,1006.867554 331.634399,1007.225830 326.286255,1007.306213 
z"/>
<path fill="#8B96A2" opacity="1.000000" stroke="none" 
	d="
M420.859558,1044.640625 
	C421.013397,1045.115479 421.006256,1045.304688 420.986633,1045.778442 
	C416.737579,1042.604736 412.248444,1039.408447 408.326294,1035.624268 
	C403.030884,1030.515137 398.171509,1024.954102 393.139954,1019.231934 
	C396.737762,1021.736206 400.535706,1024.367798 403.855927,1027.505127 
	C409.625610,1032.957275 415.100189,1038.721558 420.859558,1044.640625 
z"/>
<path fill="#8B96A2" opacity="1.000000" stroke="none" 
	d="
M299.447205,1012.951660 
	C298.994080,1012.755920 298.988800,1012.572876 298.969360,1012.114075 
	C301.911774,1011.163818 304.853241,1010.411743 307.828278,1009.831970 
	C312.952148,1008.833374 318.096863,1007.942017 323.649902,1007.056274 
	C322.333252,1008.069763 320.699005,1009.539734 318.847626,1009.903076 
	C312.571564,1011.134766 306.218658,1011.974792 299.447205,1012.951660 
z"/>
<path fill="#8B96A2" opacity="1.000000" stroke="none" 
	d="
M381.167053,1008.215759 
	C385.126770,1011.302185 389.064636,1014.744141 393.062378,1018.515381 
	C389.129852,1015.420166 385.137482,1011.995789 381.167053,1008.215759 
z"/>
<path fill="#8B96A2" opacity="1.000000" stroke="none" 
	d="
M468.046417,1087.334229 
	C469.673279,1088.048828 471.332855,1089.111206 473.055328,1090.510498 
	C471.438538,1089.792480 469.758850,1088.737305 468.046417,1087.334229 
z"/>
<path fill="#8B96A2" opacity="1.000000" stroke="none" 
	d="
M945.137878,1118.229004 
	C945.759583,1118.336792 946.386475,1118.782837 947.092651,1119.524414 
	C946.495667,1119.402466 945.819336,1118.984985 945.137878,1118.229004 
z"/>
<path fill="#667787" opacity="1.000000" stroke="none" 
	d="
M352.159607,373.138245 
	C363.272278,363.651367 374.688873,355.174438 387.522156,348.921783 
	C398.441193,343.601715 409.662415,338.899841 420.772797,333.976044 
	C423.183594,332.907623 425.631500,331.837677 428.165527,331.147278 
	C438.744659,328.264984 449.218964,324.216522 459.999573,323.030365 
	C478.103210,321.038544 496.475525,319.532471 514.613770,320.387756 
	C531.177551,321.168823 547.710754,324.751465 564.004028,328.271912 
	C573.074341,330.231812 581.714661,334.371094 590.394897,337.906036 
	C606.830139,344.599121 622.105896,353.515930 636.212158,364.180176 
	C648.748230,373.657410 661.227173,383.319611 670.487549,396.439270 
	C674.442810,402.042816 679.706482,406.719635 683.694458,412.304077 
	C688.288879,418.737823 692.366638,425.577087 696.233337,432.484039 
	C700.184814,439.542236 704.086304,446.700287 707.145020,454.168762 
	C711.205078,464.082092 714.643677,474.268188 717.958008,484.464294 
	C722.787476,499.322052 725.583923,514.510437 727.478333,530.124207 
	C730.070557,551.489258 730.399780,572.805359 729.859070,594.146667 
	C729.393433,612.523865 727.959778,630.932556 725.812744,649.193176 
	C724.135132,663.461792 721.329590,677.677490 717.898987,691.640015 
	C713.676331,708.826111 708.632507,725.835266 703.280457,742.710571 
	C699.445496,754.802673 695.071045,766.793945 689.917725,778.376465 
	C685.390259,788.552307 679.817444,798.323303 674.025574,807.859558 
	C667.952026,817.859558 661.843323,828.019592 654.346680,836.928833 
	C644.461792,848.676270 633.478699,859.550842 622.435181,870.250977 
	C616.633545,875.872131 609.942810,880.690857 603.197388,885.187622 
	C597.489990,888.992249 591.280273,892.153992 585.013733,894.981567 
	C576.938843,898.625183 568.754395,902.197021 560.311218,904.811951 
	C548.714233,908.403625 537.189453,912.307251 524.659607,912.243591 
	C512.591492,912.182251 500.493530,914.173218 488.452637,913.809021 
	C479.358795,913.533936 470.226135,911.420959 461.309570,909.292847 
	C452.553528,907.202942 443.705475,904.833984 435.514954,901.197388 
	C423.748413,895.973145 412.057434,890.244568 401.239471,883.317566 
	C391.609009,877.150818 382.685730,869.607056 374.417023,861.664673 
	C366.464264,854.025940 359.849030,845.009155 352.470581,836.754883 
	C340.927338,823.841370 332.154724,809.087280 324.273285,793.831726 
	C318.607483,782.864746 313.598938,771.530396 308.818451,760.141174 
	C303.337524,747.083252 297.963135,733.942200 293.434601,720.535889 
	C290.171295,710.875183 288.367798,700.721313 285.913239,690.787415 
	C285.248077,688.095459 284.508881,685.419312 283.932343,682.708435 
	C282.190643,674.518799 280.323792,666.349182 278.860992,658.108643 
	C277.338654,649.532959 276.021301,640.908875 274.979889,632.261963 
	C271.793091,605.802551 271.135803,579.205627 272.052704,552.618408 
	C272.554169,538.076721 274.198242,523.542908 276.003174,509.090027 
	C277.016144,500.978607 278.967712,492.908325 281.306763,485.061035 
	C283.448456,477.875763 286.507874,470.941620 289.472229,464.029480 
	C293.601837,454.400177 297.299377,444.480774 302.493042,435.438660 
	C309.242767,423.687378 316.657745,412.193634 324.949341,401.489899 
	C332.273376,392.035126 341.181671,383.805725 349.427582,375.070343 
	C350.096344,374.361847 351.052307,373.924500 352.159607,373.138245 
z"/>
</svg>